<svg id="Layer_1" data-name="Layer 1" xmlns="http://www.w3.org/2000/svg" xmlns:xlink="http://www.w3.org/1999/xlink" viewBox="0 0 1024.44 802.89"><defs><style>.cls-1{fill:url(#linear-gradient);}.cls-2{fill:url(#linear-gradient-2);}.cls-3{fill:#fff;}.cls-4{fill:url(#linear-gradient-3);}.cls-10,.cls-11,.cls-12,.cls-13,.cls-14,.cls-15,.cls-16,.cls-17,.cls-18,.cls-19,.cls-20,.cls-21,.cls-22,.cls-23,.cls-24,.cls-25,.cls-26,.cls-27,.cls-28,.cls-29,.cls-30,.cls-31,.cls-32,.cls-33,.cls-34,.cls-35,.cls-36,.cls-37,.cls-38,.cls-39,.cls-40,.cls-41,.cls-44,.cls-45,.cls-46,.cls-47,.cls-48,.cls-49,.cls-5,.cls-50,.cls-51,.cls-52,.cls-53,.cls-54,.cls-6,.cls-7,.cls-8,.cls-9{opacity:0.85;}.cls-5{fill:url(#radial-gradient);}.cls-6{fill:url(#radial-gradient-2);}.cls-7{fill:url(#radial-gradient-3);}.cls-8{fill:url(#radial-gradient-4);}.cls-9{fill:url(#radial-gradient-5);}.cls-10{fill:url(#radial-gradient-6);}.cls-11{fill:url(#radial-gradient-7);}.cls-12{fill:url(#radial-gradient-8);}.cls-13{fill:url(#radial-gradient-9);}.cls-14{fill:url(#radial-gradient-10);}.cls-15{fill:url(#radial-gradient-11);}.cls-16{fill:url(#radial-gradient-12);}.cls-17{fill:url(#radial-gradient-13);}.cls-18{fill:url(#radial-gradient-14);}.cls-19{fill:url(#radial-gradient-15);}.cls-20{fill:url(#radial-gradient-16);}.cls-21{fill:url(#radial-gradient-17);}.cls-22{fill:url(#radial-gradient-18);}.cls-23{fill:url(#radial-gradient-19);}.cls-24{fill:url(#radial-gradient-20);}.cls-25{fill:url(#radial-gradient-21);}.cls-26{fill:url(#radial-gradient-22);}.cls-27{fill:url(#radial-gradient-23);}.cls-28{fill:url(#radial-gradient-24);}.cls-29{fill:url(#radial-gradient-25);}.cls-30{fill:url(#radial-gradient-26);}.cls-31{fill:url(#radial-gradient-27);}.cls-32{fill:url(#radial-gradient-28);}.cls-33{fill:url(#radial-gradient-29);}.cls-34{fill:url(#radial-gradient-30);}.cls-35{fill:url(#radial-gradient-31);}.cls-36{fill:url(#radial-gradient-32);}.cls-37{fill:url(#radial-gradient-33);}.cls-38{fill:url(#radial-gradient-34);}.cls-39{fill:url(#radial-gradient-35);}.cls-40{fill:url(#radial-gradient-36);}.cls-41{fill:url(#radial-gradient-37);}.cls-42{fill:#22313f;opacity:0.65;}.cls-43{fill:#16a085;opacity:0.75;}.cls-44{fill:#4a545e;}.cls-45{fill:url(#radial-gradient-38);}.cls-46{fill:url(#radial-gradient-39);}.cls-47{fill:url(#radial-gradient-40);}.cls-48{fill:url(#radial-gradient-41);}.cls-49{fill:url(#radial-gradient-42);}.cls-50{fill:url(#radial-gradient-43);}.cls-51{fill:url(#radial-gradient-44);}.cls-52{fill:url(#radial-gradient-45);}.cls-53{fill:url(#radial-gradient-46);}.cls-54{fill:url(#radial-gradient-47);}</style><linearGradient id="linear-gradient" x1="238.88" y1="-137.92" x2="785.12" y2="808.21" gradientUnits="userSpaceOnUse"><stop offset="0" stop-color="#0f3057"/><stop offset="0.11" stop-color="#1f4668"/><stop offset="0.41" stop-color="#4a7f95"/><stop offset="0.67" stop-color="#6aa9b6"/><stop offset="0.88" stop-color="#7dc3ca"/><stop offset="1" stop-color="#84ccd1"/></linearGradient><linearGradient id="linear-gradient-2" x1="69.95" y1="231.9" x2="164.23" y2="231.9" gradientUnits="userSpaceOnUse"><stop offset="0" stop-color="#fff" stop-opacity="0"/><stop offset="0.07" stop-color="#fff" stop-opacity="0.13"/><stop offset="0.22" stop-color="#fff" stop-opacity="0.36"/><stop offset="0.36" stop-color="#fff" stop-opacity="0.55"/><stop offset="0.5" stop-color="#fff" stop-opacity="0.71"/><stop offset="0.64" stop-color="#fff" stop-opacity="0.84"/><stop offset="0.77" stop-color="#fff" stop-opacity="0.93"/><stop offset="0.89" stop-color="#fff" stop-opacity="0.98"/><stop offset="1" stop-color="#fff"/></linearGradient><linearGradient id="linear-gradient-3" x1="945.92" y1="128.81" x2="1037.48" y2="128.81" gradientTransform="matrix(-1, 0, 0, 1, 1757.46, 0.15)" xlink:href="#linear-gradient-2"/><radialGradient id="radial-gradient" cx="100.2" cy="80.37" r="1.76" gradientUnits="userSpaceOnUse"><stop offset="0" stop-color="#fff"/><stop offset="0.29" stop-color="#fff" stop-opacity="0.99"/><stop offset="0.43" stop-color="#fff" stop-opacity="0.96"/><stop offset="0.54" stop-color="#fff" stop-opacity="0.91"/><stop offset="0.62" stop-color="#fff" stop-opacity="0.84"/><stop offset="0.7" stop-color="#fff" stop-opacity="0.75"/><stop offset="0.77" stop-color="#fff" stop-opacity="0.63"/><stop offset="0.84" stop-color="#fff" stop-opacity="0.49"/><stop offset="0.9" stop-color="#fff" stop-opacity="0.33"/><stop offset="0.96" stop-color="#fff" stop-opacity="0.16"/><stop offset="1" stop-color="#fff" stop-opacity="0"/></radialGradient><radialGradient id="radial-gradient-2" cx="258.86" cy="300.66" r="1.76" gradientTransform="translate(109.3 -176.72)" xlink:href="#radial-gradient"/><radialGradient id="radial-gradient-3" cx="27.67" cy="122.34" r="1.21" xlink:href="#radial-gradient"/><radialGradient id="radial-gradient-4" cx="203.08" cy="341.42" r="3.65" gradientTransform="translate(300.9 -43.6) rotate(45)" xlink:href="#radial-gradient"/><radialGradient id="radial-gradient-5" cx="40.51" cy="32.32" r="3.65" gradientTransform="translate(34.72 -19.18) rotate(45)" xlink:href="#radial-gradient"/><radialGradient id="radial-gradient-6" cx="308.9" cy="366.17" r="3.65" gradientTransform="translate(349.4 -111.18) rotate(45)" xlink:href="#radial-gradient"/><radialGradient id="radial-gradient-7" cx="254.44" cy="44.96" r="1.75" gradientTransform="translate(106.31 -166.75) rotate(45)" xlink:href="#radial-gradient"/><radialGradient id="radial-gradient-8" cx="368.16" cy="29.41" r="1.57" gradientTransform="translate(128.63 -251.71) rotate(45)" xlink:href="#radial-gradient"/><radialGradient id="radial-gradient-9" cx="779.42" cy="95.64" r="3.65" gradientTransform="translate(295.92 -523.12) rotate(45)" xlink:href="#radial-gradient"/><radialGradient id="radial-gradient-10" cx="849.11" cy="45.36" r="3.65" gradientTransform="translate(280.77 -587.12) rotate(45)" xlink:href="#radial-gradient"/><radialGradient id="radial-gradient-11" cx="463.84" cy="58.5" r="3.65" gradientTransform="translate(177.22 -310.85) rotate(45)" xlink:href="#radial-gradient"/><radialGradient id="radial-gradient-12" cx="616.57" cy="58.5" r="1.84" gradientTransform="translate(221.96 -418.84) rotate(45)" xlink:href="#radial-gradient"/><radialGradient id="radial-gradient-13" cx="985.2" cy="32.32" r="3.65" gradientTransform="translate(311.41 -687.18) rotate(45)" xlink:href="#radial-gradient"/><radialGradient id="radial-gradient-14" cx="501.11" cy="283.06" r="3.65" gradientTransform="translate(346.93 -271.43) rotate(45)" xlink:href="#radial-gradient"/><radialGradient id="radial-gradient-15" cx="494.81" cy="109.72" r="3.65" gradientTransform="translate(222.51 -317.74) rotate(45)" xlink:href="#radial-gradient"/><radialGradient id="radial-gradient-16" cx="642.01" cy="291.84" r="3.65" gradientTransform="translate(394.4 -368.49) rotate(45)" xlink:href="#radial-gradient"/><radialGradient id="radial-gradient-17" cx="424.37" cy="181.01" r="2.14" gradientTransform="translate(252.29 -247.06) rotate(45)" xlink:href="#radial-gradient"/><radialGradient id="radial-gradient-18" cx="283.54" cy="122.19" r="2.14" gradientTransform="translate(169.44 -164.7) rotate(45)" xlink:href="#radial-gradient"/><radialGradient id="radial-gradient-19" cx="203.76" cy="95.64" r="2.14" gradientTransform="translate(127.31 -116.06) rotate(45)" xlink:href="#radial-gradient"/><radialGradient id="radial-gradient-20" cx="970.54" cy="522.2" r="3.65" gradientTransform="translate(653.51 -533.33) rotate(45)" xlink:href="#radial-gradient"/><radialGradient id="radial-gradient-21" cx="925.48" cy="209.69" r="2.58" gradientTransform="translate(419.34 -593) rotate(45)" xlink:href="#radial-gradient"/><radialGradient id="radial-gradient-22" cx="1004.89" cy="231.75" r="2.58" gradientTransform="translate(458.2 -642.69) rotate(45)" xlink:href="#radial-gradient"/><radialGradient id="radial-gradient-23" cx="987.78" cy="106.3" r="2.58" gradientTransform="translate(364.48 -667.34) rotate(45)" xlink:href="#radial-gradient"/><radialGradient id="radial-gradient-24" cx="830.4" cy="272.33" r="1.82" gradientTransform="translate(435.79 -507.42) rotate(45)" xlink:href="#radial-gradient"/><radialGradient id="radial-gradient-25" cx="772.65" cy="291.84" r="1.82" gradientTransform="translate(432.67 -460.87) rotate(45)" xlink:href="#radial-gradient"/><radialGradient id="radial-gradient-26" cx="762.93" cy="539.49" r="3.65" gradientTransform="translate(604.93 -381.46) rotate(45)" xlink:href="#radial-gradient"/><radialGradient id="radial-gradient-27" cx="925.48" cy="345.07" r="3.65" gradientTransform="translate(515.07 -553.35) rotate(45)" xlink:href="#radial-gradient"/><radialGradient id="radial-gradient-28" cx="655.03" cy="418.24" r="3.65" gradientTransform="translate(487.6 -340.67) rotate(45)" xlink:href="#radial-gradient"/><radialGradient id="radial-gradient-29" cx="704.22" cy="215.94" r="2.7" gradientTransform="translate(358.95 -434.71) rotate(45)" xlink:href="#radial-gradient"/><radialGradient id="radial-gradient-30" cx="830.4" cy="366.17" r="2.7" gradientTransform="translate(502.14 -479.93) rotate(45)" xlink:href="#radial-gradient"/><radialGradient id="radial-gradient-31" cx="498.68" cy="504.12" r="3.65" gradientTransform="translate(874.57 -97.15) rotate(76.7)" xlink:href="#radial-gradient"/><radialGradient id="radial-gradient-32" cx="217.24" cy="549.37" r="3.65" gradientTransform="translate(701.91 211.58) rotate(76.7)" xlink:href="#radial-gradient"/><radialGradient id="radial-gradient-33" cx="235.74" cy="245.09" r="3.65" gradientTransform="translate(420.03 -40.7) rotate(76.7)" xlink:href="#radial-gradient"/><radialGradient id="radial-gradient-34" cx="269.73" cy="209.69" r="3.65" gradientTransform="translate(411.75 -101.04) rotate(76.7)" xlink:href="#radial-gradient"/><radialGradient id="radial-gradient-35" cx="69.73" cy="154.49" r="3.65" gradientTransform="translate(204.04 51.1) rotate(76.7)" xlink:href="#radial-gradient"/><radialGradient id="radial-gradient-36" cx="59.63" cy="535.83" r="3.65" gradientTransform="translate(396.36 114.78) rotate(45)" xlink:href="#radial-gradient"/><radialGradient id="radial-gradient-37" cx="392.85" cy="574.6" r="3.65" gradientTransform="translate(521.37 -109.49) rotate(45)" xlink:href="#radial-gradient"/><radialGradient id="radial-gradient-38" cx="632.88" cy="672.19" r="1.76" gradientTransform="translate(262.46 -550)" xlink:href="#radial-gradient"/><radialGradient id="radial-gradient-39" cx="518.19" cy="681.25" r="1.76" gradientTransform="translate(302.46 -471.56)" xlink:href="#radial-gradient"/><radialGradient id="radial-gradient-40" cx="365.95" cy="516.94" r="1.76" gradientTransform="translate(230.86 -315.78)" xlink:href="#radial-gradient"/><radialGradient id="radial-gradient-41" cx="82.12" cy="182.29" r="1.76" gradientTransform="translate(77.36 -17.06)" xlink:href="#radial-gradient"/><radialGradient id="radial-gradient-42" cx="82.12" cy="461.79" r="1.76" gradientTransform="translate(275 -98.93)" xlink:href="#radial-gradient"/><radialGradient id="radial-gradient-43" cx="177.95" cy="379.08" r="1.76" gradientTransform="translate(188.45 -142.47)" xlink:href="#radial-gradient"/><radialGradient id="radial-gradient-44" cx="294.02" cy="673.69" r="1.76" gradientTransform="translate(362.77 -310.83)" xlink:href="#radial-gradient"/><radialGradient id="radial-gradient-45" cx="535.38" cy="608.29" r="1.76" gradientTransform="translate(16.04 631.03) rotate(-90)" xlink:href="#radial-gradient"/><radialGradient id="radial-gradient-46" cx="399.89" cy="508.45" r="1.76" gradientTransform="translate(214.92 -337.29)" xlink:href="#radial-gradient"/><radialGradient id="radial-gradient-47" cx="633.32" cy="364.31" r="1.21" xlink:href="#radial-gradient"/></defs><title>title-background</title><rect class="cls-1" width="1024" height="670.3"/><polygon class="cls-2" points="164.23 228.85 164.23 234.94 69.95 233.29 69.95 230.5 164.23 228.85"/><circle class="cls-3" cx="165.19" cy="231.9" r="4.87"/><polygon class="cls-4" points="719.98 126 719.98 131.92 811.54 130.32 811.54 127.61 719.98 126"/><circle class="cls-3" cx="719.04" cy="128.96" r="4.73"/><circle class="cls-5" cx="100.2" cy="80.37" r="1.76" transform="translate(-27.27 94.54) rotate(-45)"/><circle class="cls-6" cx="368.16" cy="123.95" r="1.76" transform="translate(20.41 296.78) rotate(-45)"/><circle class="cls-7" cx="27.67" cy="122.34" r="1.21"/><circle class="cls-8" cx="203.08" cy="341.42" r="3.65" transform="translate(-181.72 243.75) rotate(-45)"/><circle class="cls-9" cx="40.51" cy="32.32" r="3.65" transform="translate(-10.77 38.26) rotate(-45)"/><circle class="cls-10" cx="308.9" cy="366.17" r="3.65" transform="translate(-168.23 325.82) rotate(-45)"/><circle class="cls-11" cx="254.44" cy="44.96" r="1.75" transform="translate(42.95 193.23) rotate(-45)"/><circle class="cls-12" cx="368.16" cy="29.41" r="1.57" transform="translate(87.26 269.09) rotate(-45)"/><circle class="cls-13" cx="779.42" cy="95.64" r="3.65" transform="translate(160.88 579.3) rotate(-45)"/><circle class="cls-14" cx="849.11" cy="45.36" r="3.65" transform="translate(216.84 613.84) rotate(-45)"/><circle class="cls-15" cx="463.84" cy="58.5" r="3.65" transform="translate(94.71 345.27) rotate(-45)"/><circle class="cls-16" cx="616.57" cy="58.5" r="1.84" transform="translate(139.44 453.26) rotate(-45)"/><circle class="cls-17" cx="985.2" cy="32.32" r="3.65" transform="translate(265.93 706.26) rotate(-45)"/><circle class="cls-18" cx="501.11" cy="283.06" r="3.65" transform="translate(-53.16 437.4) rotate(-45)"/><circle class="cls-19" cx="494.81" cy="109.72" r="3.65" transform="translate(67.56 382.17) rotate(-45)"/><circle class="cls-20" cx="642.01" cy="291.84" r="3.65" transform="translate(-18.1 539.6) rotate(-45)"/><circle class="cls-21" cx="424.37" cy="181.01" r="2.14" transform="translate(-3.48 353.24) rotate(-45)"/><circle class="cls-22" cx="283.54" cy="122.19" r="2.14" transform="translate(-3.13 236.43) rotate(-45)"/><circle class="cls-23" cx="203.76" cy="95.64" r="2.14" transform="translate(-7.73 172.24) rotate(-45)"/><circle class="cls-24" cx="970.54" cy="522.2" r="3.65" transform="translate(-84.76 839.37) rotate(-45)"/><circle class="cls-25" cx="925.48" cy="209.69" r="2.58" transform="translate(123.01 715.98) rotate(-45)"/><circle class="cls-26" cx="1004.89" cy="231.75" r="2.58" transform="translate(130.68 778.59) rotate(-45)"/><circle class="cls-27" cx="987.78" cy="106.3" r="2.58" transform="translate(214.37 729.75) rotate(-45)"/><circle class="cls-28" cx="830.4" cy="272.33" r="1.82" transform="translate(50.87 667.1) rotate(-45)"/><circle class="cls-29" cx="772.65" cy="291.84" r="1.82" transform="translate(20.16 631.97) rotate(-45)"/><circle class="cls-30" cx="762.93" cy="539.49" r="3.65" transform="translate(-157.8 697.64) rotate(-45)"/><circle class="cls-31" cx="925.48" cy="345.07" r="3.65" transform="translate(27.29 755.64) rotate(-45)"/><circle class="cls-32" cx="655.03" cy="418.24" r="3.65" transform="translate(-103.67 585.82) rotate(-45)"/><circle class="cls-33" cx="704.22" cy="215.94" r="2.7" transform="translate(53.79 561.35) rotate(-45)"/><circle class="cls-34" cx="830.4" cy="366.17" r="2.7" transform="translate(-15.48 694.58) rotate(-45)"/><circle class="cls-35" cx="498.68" cy="504.12" r="3.65" transform="matrix(0.23, -0.97, 0.97, 0.23, -106.42, 873.62)"/><circle class="cls-36" cx="217.24" cy="549.37" r="3.65" transform="translate(-367.15 634.57) rotate(-76.7)"/><circle class="cls-37" cx="235.74" cy="245.09" r="3.65" transform="matrix(0.23, -0.97, 0.97, 0.23, -56.79, 418.28)"/><circle class="cls-38" cx="269.73" cy="209.69" r="3.65" transform="matrix(0.23, -0.97, 0.97, 0.23, 3.83, 424.1)"/><circle class="cls-39" cx="69.73" cy="154.49" r="3.65" transform="matrix(0.23, -0.97, 0.97, 0.23, -96.44, 186.97)"/><circle class="cls-40" cx="59.63" cy="535.83" r="3.65" transform="translate(-361.21 199.25) rotate(-45)"/><circle class="cls-41" cx="392.85" cy="574.6" r="3.65" transform="translate(-291.02 446.23) rotate(-45)"/><polygon class="cls-42" points="804.44 670.3 220.44 670.3 269.7 584.99 366.87 416.69 489.63 204.06 512.44 164.55 535.25 204.06 657.22 415.32 657.68 416.11 658.89 418.2 755.18 584.99 804.44 670.3"/><polygon class="cls-43" points="859.99 501.29 957.65 670.3 510.92 670.3 512.17 668.14 654.32 421.93 657.68 416.11 657.84 415.83 734.19 283.6 831.74 452.4 857.01 496.15 859.98 501.29 859.99 501.29"/><polygon class="cls-43" points="1024.44 785.88 1024.44 802.89 1024 802.89 1024 785.12 1024.44 785.88"/><polygon class="cls-43" points="513.42 670.3 66.5 670.3 192.72 451.67 289.86 283.42 366.87 416.69 512.17 668.14 513.42 670.3"/><polygon class="cls-44" points="1024.44 337.77 1024.44 802.89 1024 802.89 1024 670.3 705.93 670.3 755.18 584.99 831.74 452.4 961.18 228.2 1024 337.01 1024.44 337.77"/><polygon class="cls-44" points="318.95 670.3 0.44 670.3 0.44 337.77 63.7 228.2 168.52 409.75 173.61 418.57 192.72 451.67 269.7 584.99 318.95 670.3"/><circle class="cls-45" cx="895.33" cy="122.19" r="1.76" transform="translate(176.06 669.03) rotate(-45)"/><circle class="cls-46" cx="820.64" cy="209.69" r="1.76" transform="translate(92.31 641.85) rotate(-45)"/><circle class="cls-47" cx="596.81" cy="201.16" r="1.76" transform="translate(32.78 481.07) rotate(-45)"/><circle class="cls-48" cx="159.47" cy="165.22" r="1.76" transform="translate(-69.9 161.31) rotate(-45)"/><circle class="cls-49" cx="357.11" cy="362.86" r="1.76" transform="translate(-151.76 358.95) rotate(-45)"/><circle class="cls-50" cx="366.4" cy="236.61" r="1.76" transform="translate(-59.77 328.53) rotate(-45)"/><circle class="cls-51" cx="656.79" cy="362.86" r="1.76" transform="translate(-63.99 570.85) rotate(-45)"/><circle class="cls-52" cx="624.33" cy="95.64" r="1.76" transform="translate(-2.98 24.1) rotate(-2.19)"/><circle class="cls-53" cx="614.81" cy="171.16" r="1.76" transform="translate(59.27 485.01) rotate(-45)"/><circle class="cls-54" cx="633.32" cy="364.31" r="1.21"/></svg>